# xmcd
#
# Track frame offsets:
#	150
#	19255
#	36310
#	51715
#	67310
#	79908
#	102143
#	118736
#	138650
#	158024
#	169759
#	185327
#	200542
#	215030
#	233189
#	250970
#	268616
#	278923
#	296473
#	308712
#
# Disc length: 4319 seconds
#
# Revision: 0
# Processed by: cddbd v1.4PL0 Copyright (c) Steve Scherf et al.
# Submitted via: dBpowerAMP V4.0
#
DISCID=3910dd14
DTITLE=Milionário e José Rico - Milionário e José Rico
DYEAR=1900
DGENRE=Country
TTITLE0=A Carta
TTITLE1=Nenhuma Esperança
TTITLE2=Lenha Molhada
TTITLE3=Você Agora Vai Decidir
TTITLE4=Vinte Anos
TTITLE5=Lembranças
TTITLE6=Viva a Vida
TTITLE7=Sonhei Com Você
TTITLE8=Levando a Vida
TTITLE9=O Tropeiro
TTITLE10=João de Barro
TTITLE11=Livro da Vida
TTITLE12=A Fossa
TTITLE13=Vontade Dividida
TTITLE14=Homens
TTITLE15=Praia Deserta
TTITLE16=Estrada da Vida
TTITLE17=Tudo Bem
TTITLE18=Destino Cruel
TTITLE19=O Dono do Mundo
EXTD=
EXTT0=
EXTT1=
EXTT2=
EXTT3=
EXTT4=
EXTT5=
EXTT6=
EXTT7=
EXTT8=
EXTT9=
EXTT10=
EXTT11=
EXTT12=
EXTT13=
EXTT14=
EXTT15=
EXTT16=
EXTT17=
EXTT18=
EXTT19=
PLAYORDER=
